<svg width="500" height="500" viewBox="0 0 500 500" fill="none" xmlns="http://www.w3.org/2000/svg">
<g clip-path="url(#clip0_235_1506)">
<path fill-rule="evenodd" clip-rule="evenodd" d="M418.838 483.327C425.086 489.575 435.217 489.575 441.465 483.327L482.477 442.315C488.726 436.066 488.726 425.935 482.477 419.687L313.053 250.263L482.477 80.8396C488.725 74.5912 488.725 64.4606 482.477 58.2122L441.464 17.1999C435.216 10.9515 425.085 10.9515 418.837 17.1999L249.414 186.623L80.8406 18.0504C74.5923 11.8021 64.4616 11.8021 58.2132 18.0505L17.201 59.0627C10.9526 65.3111 10.9526 75.4417 17.201 81.6901L185.774 250.263L17.2003 418.837C10.9519 425.085 10.9519 435.216 17.2003 441.464L58.2126 482.476C64.461 488.725 74.5916 488.725 80.84 482.476L249.414 313.903L418.838 483.327Z" fill="#B40041"/>
</g>
<defs>
<clipPath id="clip0_235_1506">
<rect width="500" height="500" fill="white"/>
</clipPath>
</defs>
</svg>
