<svg width="1606" height="1038" viewBox="0 0 1606 1038" fill="none" xmlns="http://www.w3.org/2000/svg">
<path opacity="0.3" d="M500 584C500 722.071 388.071 834 250 834C111.929 834 0 722.071 0 584C0 445.929 111.929 334 250 334C388.071 334 500 445.929 500 584ZM75 584C75 680.65 153.35 759 250 759C346.65 759 425 680.65 425 584C425 487.35 346.65 409 250 409C153.35 409 75 487.35 75 584Z" fill="#B40041"/>
<path opacity="0.4" d="M875 375C875 582.107 707.107 750 500 750C292.893 750 125 582.107 125 375C125 167.893 292.893 0 500 0C707.107 0 875 167.893 875 375ZM237.5 375C237.5 519.975 355.025 637.5 500 637.5C644.975 637.5 762.5 519.975 762.5 375C762.5 230.025 644.975 112.5 500 112.5C355.025 112.5 237.5 230.025 237.5 375Z" fill="#B40041"/>
<path opacity="0.5" d="M1606 538C1606 814.142 1382.14 1038 1106 1038C829.858 1038 606 814.142 606 538C606 261.858 829.858 38 1106 38C1382.14 38 1606 261.858 1606 538ZM756 538C756 731.3 912.7 888 1106 888C1299.3 888 1456 731.3 1456 538C1456 344.7 1299.3 188 1106 188C912.7 188 756 344.7 756 538Z" fill="#B40041"/>
</svg>
