<svg width="500" height="1776" viewBox="0 0 500 1776" fill="none" xmlns="http://www.w3.org/2000/svg">
<path d="M250 500C183.696 500 120.107 473.661 73.2233 426.777C26.3393 379.893 2.97718e-05 316.304 0 250C-2.97718e-05 183.696 26.3391 120.108 73.2232 73.2234C120.107 26.3393 183.696 6.2442e-05 250 1.10873e-10L250 75C203.587 75 159.075 93.4375 126.256 126.256C93.4374 159.075 75 203.587 75 250C75 296.413 93.4375 340.925 126.256 373.744C159.075 406.563 203.587 425 250 425V500Z" fill="#B40041"/>
<path d="M250 1351C183.696 1351 120.107 1324.66 73.2233 1277.78C26.3393 1230.89 2.97718e-05 1167.3 0 1101C-2.97718e-05 1034.7 26.3391 971.108 73.2232 924.223C120.107 877.339 183.696 851 250 851L250 926C203.587 926 159.075 944.438 126.256 977.256C93.4374 1010.08 75 1054.59 75 1101C75 1147.41 93.4375 1191.92 126.256 1224.74C159.075 1257.56 203.587 1276 250 1276V1351Z" fill="#B40041"/>
<path d="M250 426C316.304 426 379.893 452.339 426.777 499.223C473.661 546.107 500 609.696 500 676C500 742.304 473.661 805.892 426.777 852.777C379.893 899.661 316.304 926 250 926L250 851C296.413 851 340.925 832.562 373.744 799.744C406.563 766.925 425 722.413 425 676C425 629.587 406.563 585.075 373.744 552.256C340.925 519.437 296.413 501 250 501V426Z" fill="#B40041"/>
<path d="M250 1276C316.304 1276 379.893 1302.34 426.777 1349.22C473.661 1396.11 500 1459.7 500 1526C500 1592.3 473.661 1655.89 426.777 1702.78C379.893 1749.66 316.304 1776 250 1776L250 1701C296.413 1701 340.925 1682.56 373.744 1649.74C406.563 1616.92 425 1572.41 425 1526C425 1479.59 406.563 1435.08 373.744 1402.26C340.925 1369.44 296.413 1351 250 1351V1276Z" fill="#B40041"/>
</svg>
