<svg width="500" height="1777" viewBox="0 0 500 1777" fill="none" xmlns="http://www.w3.org/2000/svg">
<path d="M250 500C183.696 500 120.107 473.661 73.2233 426.777C26.3393 379.893 2.97718e-05 316.304 0 250C-2.97718e-05 183.696 26.3391 120.108 73.2232 73.2234C120.107 26.3393 183.696 6.2442e-05 250 1.10873e-10L250 75C203.587 75 159.075 93.4375 126.256 126.256C93.4374 159.075 75 203.587 75 250C75 296.413 93.4375 340.925 126.256 373.744C159.075 406.563 203.587 425 250 425L250 500Z" fill="#B40041"/>
<path d="M250 1352C183.696 1352 120.107 1325.66 73.2233 1278.78C26.3393 1231.89 2.97718e-05 1168.3 0 1102C-2.97718e-05 1035.7 26.3391 972.108 73.2232 925.223C120.107 878.339 183.696 852 250 852L250 927C203.587 927 159.075 945.438 126.256 978.256C93.4374 1011.08 75 1055.59 75 1102C75 1148.41 93.4375 1192.92 126.256 1225.74C159.075 1258.56 203.587 1277 250 1277L250 1352Z" fill="#B40041"/>
<path d="M250 426C316.304 426 379.893 452.339 426.777 499.223C473.661 546.107 500 609.696 500 676C500 742.304 473.661 805.892 426.777 852.777C379.893 899.661 316.304 926 250 926L250 851C296.413 851 340.925 832.562 373.744 799.744C406.563 766.925 425 722.413 425 676C425 629.587 406.563 585.075 373.744 552.256C340.925 519.437 296.413 501 250 501L250 426Z" fill="#B40041"/>
<path d="M250 1277C316.304 1277 379.893 1303.34 426.777 1350.22C473.661 1397.11 500 1460.7 500 1527C500 1593.3 473.661 1656.89 426.777 1703.78C379.893 1750.66 316.304 1777 250 1777L250 1702C296.413 1702 340.925 1683.56 373.744 1650.74C406.563 1617.92 425 1573.41 425 1527C425 1480.59 406.563 1436.08 373.744 1403.26C340.925 1370.44 296.413 1352 250 1352L250 1277Z" fill="#B40041"/>
</svg>
