<svg width="250" height="500" viewBox="0 0 250 500" fill="none" xmlns="http://www.w3.org/2000/svg">
<path d="M250 500C183.696 500 120.107 473.661 73.2233 426.777C26.3393 379.893 2.97718e-05 316.304 0 250C-2.97718e-05 183.696 26.3391 120.108 73.2232 73.2234C120.107 26.3393 183.696 6.2442e-05 250 1.10873e-10L250 75C203.587 75 159.075 93.4375 126.256 126.256C93.4374 159.075 75 203.587 75 250C75 296.413 93.4375 340.925 126.256 373.744C159.075 406.563 203.587 425 250 425L250 500Z" fill="#B40041"/>
</svg>
