<svg width="500" height="500" viewBox="0 0 500 500" fill="none" xmlns="http://www.w3.org/2000/svg">
<g clip-path="url(#clip0_177_1427)">
<path d="M500 500C467.17 500 434.661 493.534 404.329 480.97C373.998 468.406 346.438 449.991 323.223 426.777C300.009 403.562 281.594 376.002 269.03 345.671C256.466 315.339 250 282.83 250 250L325 250C325 272.981 329.527 295.738 338.321 316.97C347.116 338.202 360.006 357.493 376.256 373.744C392.507 389.994 411.798 402.884 433.03 411.679C454.262 420.473 477.019 425 500 425L500 500Z" fill="#B40041"/>
<path d="M2.18557e-05 0C66.3041 5.79649e-06 129.893 26.3392 176.777 73.2233C223.661 120.107 250 183.696 250 250L175 250C175 203.587 156.563 159.075 123.744 126.256C90.9248 93.4375 46.4129 75 1.5299e-05 75L2.18557e-05 0Z" fill="#B40041"/>
</g>
<defs>
<clipPath id="clip0_177_1427">
<rect width="500" height="500" fill="white"/>
</clipPath>
</defs>
</svg>
