<svg width="250" height="500" viewBox="0 0 250 500" fill="none" xmlns="http://www.w3.org/2000/svg">
<path d="M2.98122e-06 0C66.3041 7.90668e-07 129.893 26.3392 176.777 73.2233C223.661 120.107 250 183.696 250 250C250 316.304 223.661 379.892 176.777 426.777C129.893 473.661 66.3044 500 0.000273186 500L0.00019123 425C46.4131 425 90.925 406.562 123.744 373.744C156.563 340.925 175 296.413 175 250C175 203.587 156.563 159.075 123.744 126.256C90.9248 93.4374 46.4129 75 2.08685e-06 75L2.98122e-06 0Z" fill="#B40041"/>
</svg>
